# xmcd CD database file
#
# Track frame offsets:
#	150
#	18928
#	29270
#	42165
#	54483
#	68793
#	82565
#	98215
#	117173
#	130120
#	143823
#	157525
#	169050
#	181430
#	194535
#	208283
#	217478
#	232505
#	244763
#	258533
#	270718
#	285625
#	296930
#	311398
#	326120
#
# Disc length: 4473 seconds
#
# Revision: 5
# Processed by: cddbd v1.5.2PL0 Copyright (c) Steve Scherf et al.
# Submitted via: CDex 1.70beta2
#
DISCID=6a117719
DTITLE=Tom T. Hall - Storyteller, Poet, Philosopher - Disc 1
DYEAR=1995
DGENRE=Country
TTITLE0=Old Dogs, Children and Watermelon Wine
TTITLE1=Magnificent Music Machine
TTITLE2=A Million Miles to the City
TTITLE3=I Washed My Face in the Morning Dew
TTITLE4=The Hitch-Hiker
TTITLE5=Ballad of Forty Dollars
TTITLE6=I Hope It Rains at My Funeral
TTITLE7=Turn It On, Turn It On, Turn It On
TTITLE8=Strawberry Farms
TTITLE9=Watergate Blues
TTITLE10=I Want to See the Parade
TTITLE11=100 Children
TTITLE12=The Year That Clayton Delaney Died
TTITLE13=The Son of Clayton Delaney
TTITLE14=The Old Side of Town
TTITLE15=I Can't Dance
TTITLE16=Last of the Drifters (with Johnny Cash)
TTITLE17=Mama Bake a Pie (Daddy Kill a Chicken)
TTITLE18=A Week in a Country Jail
TTITLE19=Spokane Motel Blues
TTITLE20=Homecoming
TTITLE21=Ravishing Ruby
TTITLE22=Hello, We're Lonely (with Patti Page)
TTITLE23=Down at the Mall
TTITLE24=Fox on the Run
EXTD=(c)1995 Polygram USA\nCD-Box Katalog: 314 526 992-2 YEAR: 1995
EXTT0=
EXTT1=
EXTT2=
EXTT3=
EXTT4=
EXTT5=
EXTT6=
EXTT7=
EXTT8=
EXTT9=
EXTT10=
EXTT11=
EXTT12=
EXTT13=
EXTT14=
EXTT15=
EXTT16=
EXTT17=
EXTT18=
EXTT19=
EXTT20=
EXTT21=
EXTT22=
EXTT23=
EXTT24=
PLAYORDER=
